<svg id="Layer_1" data-name="Layer 1" xmlns="http://www.w3.org/2000/svg" width="272" height="194.53" viewBox="0 0 272 194.53"><title>Dolce &amp;amp; Gabbana logomark logo - Brandlogos.net</title><g id="g10"><g id="g12"><g id="g14"><g id="g20"><path id="path22" d="M303.55,456.15c53.93,0,84.65-26.29,84.65-72.14,0-44.4-32.68-72.15-84.65-72.15H277.62V456.15ZM248,286.74h60.47c67,0,109.49,37.68,109.49,97.56,0,57.83-42.49,97-105.9,97H248Z" transform="translate(-248 -286.74)" style="fill:#231f20"/></g><g id="g24"><path id="path26" d="M519.76,382.43h-89.6v22.24h58.6c-4.39,30.68-30.41,50.66-63.16,50.66-41.23,0-69.6-28.45-69.6-70s30.12-72.52,70.77-72.52l2.11,0h.1c28.62.07,47,17.54,54.92,27a57,57,0,0,1,4.42,6l21.73-11.28a65.65,65.65,0,0,0-5.4-9,92.38,92.38,0,0,0-18.79-19.9c-12.74-10-31-18.69-56-18.69h0q-1.53,0-3.09,0c-57.32,0-101.18,43.51-101.18,100.13,0,26.78,8.77,48.25,26.32,65.27,18.42,18.13,45.91,29,72.81,29,28.07,0,57.6-12,74.56-31.8,14.33-16.46,22.23-32.55,20.47-67" transform="translate(-248 -286.74)" style="fill:#231f20"/></g></g></g></g></svg>