<svg xmlns="http://www.w3.org/2000/svg" viewBox="0 0 400 115.37"><defs><style>.a{fill:#2c2c22;}</style></defs><title>Maison 21G logo - Brandlogos.net</title><path class="a" d="M363.07,460.18a2.57,2.57,0,0,0-1.6,1.6,13.05,13.05,0,0,0,0,3.73V499.7a13.42,13.42,0,0,0,0,3.82,2.57,2.57,0,0,0,1.6,1.6,14.47,14.47,0,0,0,3.64.53v1.42H348.95v-1.42a15.17,15.17,0,0,0,3.64-.53,2.49,2.49,0,0,0,1.51-1.6,12.71,12.71,0,0,0,0-3.82V463.2l-16,44.41H337l-17.32-44.94v36.06a11.72,11.72,0,0,0,0,4,2.93,2.93,0,0,0,1.69,1.87,13.59,13.59,0,0,0,4.09.71v1.42a69.53,69.53,0,0,0-7,0,58.34,58.34,0,0,0-6.39,0v-1.07a9.86,9.86,0,0,0,4-.71,2.93,2.93,0,0,0,1.6-2,14.3,14.3,0,0,0,.44-4.26V465.51a12.43,12.43,0,0,0-.44-3.73,2.49,2.49,0,0,0-1.51-1.6,15.19,15.19,0,0,0-3.64-.53v-1.42a58.34,58.34,0,0,0,6.39,0,52,52,0,0,0,5.86,0l15.19,40,14.83-39.7H366.8v1.15A14.48,14.48,0,0,0,363.07,460.18Z" transform="translate(-312 -454.31)"/><path class="a" d="M379.94,505.38a8.35,8.35,0,0,1-2.13-6,7.55,7.55,0,0,1,1.78-5.15,11,11,0,0,1,3.91-3.11,43.32,43.32,0,0,1,6.13-2.49,29,29,0,0,0,5.77-2.49,3.29,3.29,0,0,0,1.87-2.93v-4.26a7.37,7.37,0,0,0-1.69-5.51,7.19,7.19,0,0,0-4.8-1.33,8.08,8.08,0,0,0-6.75,2.49,4.26,4.26,0,0,1,2.31,1.42,4,4,0,0,1,.89,2.75,3.64,3.64,0,0,1-1.07,2.75,4.44,4.44,0,0,1-2.66.89,3.46,3.46,0,0,1-3.11-1.42,5,5,0,0,1-.18-5.68,11.9,11.9,0,0,1,2.4-2.22,14,14,0,0,1,4.17-1.87,18.91,18.91,0,0,1,5.59-.62,11.72,11.72,0,0,1,8.17,2.58,8.08,8.08,0,0,1,2.31,3.82,26.64,26.64,0,0,1,.53,5.86V502a4.53,4.53,0,0,0,.53,2.49,1.69,1.69,0,0,0,1.6.71,3,3,0,0,0,1.6,0l1.51-1.07.8,1.15a13.14,13.14,0,0,1-3.11,2,6.57,6.57,0,0,1-3.2.62,5.42,5.42,0,0,1-4.62-1.69,6.75,6.75,0,0,1-1.24-4.44,12.34,12.34,0,0,1-4.88,4.44,13.41,13.41,0,0,1-6,1.42,8.88,8.88,0,0,1-6.48-2.13Zm17.76-5.77V486a6.22,6.22,0,0,1-1.78,1.6c-.71,0-1.87,1-3.37,1.6s-3.11,1.51-4.26,2.13a10.13,10.13,0,0,0-2.75,2.75,7.37,7.37,0,0,0-1.6,4.62,6.31,6.31,0,0,0,1.51,4.71,5.15,5.15,0,0,0,4,1.6,9.41,9.41,0,0,0,7.82-5.24" transform="translate(-312 -454.31)"/><path class="a" d="M428.87,500.59a5,5,0,0,0,1.15,3.91,6.13,6.13,0,0,0,4.09,1.07v1.51h-16.7v-1.51a6.13,6.13,0,0,0,4.09-1.07,5,5,0,0,0,1.15-3.91V479.09a7.19,7.19,0,0,0-1.15-4.62,5,5,0,0,0-4.09-1.51v-1.42a35.52,35.52,0,0,0,4.26,0,20.69,20.69,0,0,0,7.19-1Zm-.53-44.94a4,4,0,0,1,1.33,3.11,4.35,4.35,0,0,1-1.33,3.11,4.28,4.28,0,0,1-6.13.09,4.35,4.35,0,0,1-1.33-3.2,4.3,4.3,0,0,1,7.46-3.11Z" transform="translate(-312 -454.31)"/><path class="a" d="M460.31,471.37a9.5,9.5,0,0,1,3.11,1.78,2.13,2.13,0,0,0,1.24.53c.8,0,1.33-1,1.51-3h1.6v11.72h-1.6a17.76,17.76,0,0,0-2.75-7.55,7.64,7.64,0,0,0-6.93-2.75,5.77,5.77,0,0,0-4.09,1.42,4.8,4.8,0,0,0-1.6,3.91,5.51,5.51,0,0,0,1.69,4,29.48,29.48,0,0,0,5.33,3.91c.44,0,1,.62,1.87,1.15a55.74,55.74,0,0,1,5.06,3.64,13.32,13.32,0,0,1,3.11,3.64,9.2,9.2,0,0,1-2.13,11.9,13.77,13.77,0,0,1-8.88,2.58,14.74,14.74,0,0,1-5.42-1,19.54,19.54,0,0,1-2.84-1.86.8.8,0,0,0-.62,0,.89.89,0,0,0-.8.62,8.89,8.89,0,0,0-.62,2h-.89V494.19h1.6a24.34,24.34,0,0,0,2.75,9.68,7.46,7.46,0,0,0,6.84,3.2,6.39,6.39,0,0,0,4.26-1.6,6.77,6.77,0,0,0,.44-9.95,30,30,0,0,0-6-4.44c-2.22-1.42-4-2.66-5.15-3.55a12.61,12.61,0,0,1-3.11-3.37,8.88,8.88,0,0,1-1.69-4.71,7.82,7.82,0,0,1,2.93-6.57,11.37,11.37,0,0,1,7.28-2.31A11.63,11.63,0,0,1,460.31,471.37Z" transform="translate(-312 -454.31)"/><path class="a" d="M508.54,475.28a20,20,0,0,1,4.26,14,20.34,20.34,0,0,1-4.26,14.12,16.34,16.34,0,0,1-22.74,0,20.34,20.34,0,0,1-4.62-14.12,20,20,0,0,1,4.26-14,16.07,16.07,0,0,1,22.74,0Zm-18.12.89a37.22,37.22,0,0,0,0,26.29,7.28,7.28,0,0,0,13.14,0,37.22,37.22,0,0,0,0-26.29,7.28,7.28,0,0,0-13.14,0Z" transform="translate(-312 -454.31)"/><path class="a" d="M554.45,473.23a7.37,7.37,0,0,1,1.87,3.37,23.8,23.8,0,0,1,.53,5.6v18.38a5,5,0,0,0,1.15,3.91,6.13,6.13,0,0,0,4.09,1.07v1.51h-16v-1.51a4.89,4.89,0,0,0,3.55-1.07,6,6,0,0,0,1-3.91V481a12.78,12.78,0,0,0-1.07-5.86,4.8,4.8,0,0,0-4.53-2,7.64,7.64,0,0,0-5,1.69,10.21,10.21,0,0,0-3.46,4.44,16.7,16.7,0,0,0-1.15,6.39v15a5.42,5.42,0,0,0,1,3.91,4.71,4.71,0,0,0,3.55,1.07v1.51H524v-1.51a6.13,6.13,0,0,0,4.09-1.07,5.42,5.42,0,0,0,1.15-3.91V479.09a7.82,7.82,0,0,0-1.15-4.62A5,5,0,0,0,524,473v-1.42a34.19,34.19,0,0,0,4.26,0,21,21,0,0,0,7.19-1v8.17a13,13,0,0,1,4.8-6.39,12.35,12.35,0,0,1,6.93-2,9.5,9.5,0,0,1,7.28,2.66" transform="translate(-312 -454.31)"/><path class="a" d="M616.26,461.07a9.94,9.94,0,0,1,3.47,8,16,16,0,0,1-1.33,6.22,39.73,39.73,0,0,1-3.64,6.13c-1.42,2-3.55,4.62-6.31,8.08s-7,8.88-9.41,12.26H614.4a4.08,4.08,0,0,0,3.37-1.42,8.88,8.88,0,0,0,1.6-4.88h1.51v11.46H594.24v-1.33a100.53,100.53,0,0,0,8.88-11,63.14,63.14,0,0,0,7.1-11.72,28.51,28.51,0,0,0,3.2-12.61,12.63,12.63,0,0,0-2.22-7.82,7.37,7.37,0,0,0-5.68-2.66,8.88,8.88,0,0,0-4.71,1.24,6.57,6.57,0,0,0-3,3.37,6.32,6.32,0,0,1,2.84,1.07,3.12,3.12,0,0,1,.82,1.12,3.07,3.07,0,0,1,.25,1.37,3.46,3.46,0,0,1-1,2.49,3.55,3.55,0,0,1-2.66,1,3.37,3.37,0,0,1-2.66-1.07,3.91,3.91,0,0,1-1-2.58,7.73,7.73,0,0,1,.62-2.58,9.59,9.59,0,0,1,1.6-2.58,11.9,11.9,0,0,1,4.8-3.29,16.77,16.77,0,0,1,6-1.07A14.38,14.38,0,0,1,616.26,461.07Z" transform="translate(-312 -454.31)"/><path class="a" d="M645.66,499.79a17.6,17.6,0,0,0,0,3.73,2.62,2.62,0,0,0,.63.93,2.67,2.67,0,0,0,1,.58,12.79,12.79,0,0,0,3.46.53v1.33H632.16v-1.33a19.51,19.51,0,0,0,4.35-.53,3.1,3.1,0,0,0,2-1.51,9.76,9.76,0,0,0,.53-3.73V469.33a6.77,6.77,0,0,0-.71-3.46,3.29,3.29,0,0,0-2.31-1.42,21.85,21.85,0,0,0-4.8,0v-1.78a55.11,55.11,0,0,0,8.08-1.87,31.21,31.21,0,0,0,5.77-2.31Z" transform="translate(-312 -454.31)"/><path class="a" d="M698.77,459.38a27.48,27.48,0,0,1,5.6,3.29,2.75,2.75,0,0,0,1.33.62c.89,0,1.42-1.33,1.69-4.09H709v15.45h-1.6a51.13,51.13,0,0,0-1.24-5.86,11.19,11.19,0,0,0-2.13-4.09,13,13,0,0,0-5.06-3.82,15.36,15.36,0,0,0-6.57-1.42,11.54,11.54,0,0,0-7.82,2.93,17.77,17.77,0,0,0-5.24,8.26,40.25,40.25,0,0,0-1.78,12.43,31.43,31.43,0,0,0,3.91,17.76,13.58,13.58,0,0,0,12.08,5.6,11.55,11.55,0,0,0,7-2.13,3.39,3.39,0,0,0,1.6-1.6,4.08,4.08,0,0,0,0-2v-6.39a11.35,11.35,0,0,0-.44-4.44,2.94,2.94,0,0,0-1.87-1.69,14.66,14.66,0,0,0-4.35-.62v-1.07H712v1.33a6.3,6.3,0,0,0-2.31.53,2.31,2.31,0,0,0-.89,1.51,18.84,18.84,0,0,0,0,3.73v13.32h-1.33a13.28,13.28,0,0,0-.53-2.58,1.29,1.29,0,0,0-1.33-1.24h-.8l-1.6,1.15a16.79,16.79,0,0,1-4.88,2.75,16.07,16.07,0,0,1-5.6.89,23.8,23.8,0,0,1-11.9-2.84,18.9,18.9,0,0,1-7.55-8.26,28.94,28.94,0,0,1-2.66-12.88,30.55,30.55,0,0,1,2.75-13.5,20.78,20.78,0,0,1,7.73-8.88,20.06,20.06,0,0,1,11.1-3.29A15.55,15.55,0,0,1,698.77,459.38Z" transform="translate(-312 -454.31)"/><path class="a" d="M460.14,559v6.39a5.06,5.06,0,0,0,0,2,1.78,1.78,0,0,0,1,.8,7,7,0,0,0,2.31,0v.71h-9.77v-.71a4.52,4.52,0,0,0,1.87,0,1.16,1.16,0,0,0,.8-.8,5.77,5.77,0,0,0,0-2V547.66a5.5,5.5,0,0,0,0-2,1,1,0,0,0-.8-.8,6.22,6.22,0,0,0-1.87,0v-.62h9.77a9.41,9.41,0,0,1,6.31,1.87,6.22,6.22,0,0,1,2.22,5.06,8.88,8.88,0,0,1-.89,3.73,6.84,6.84,0,0,1-2.93,3,11,11,0,0,1-5.51,1.15Zm1-13.94a1.24,1.24,0,0,0-.71.89,5.42,5.42,0,0,0,0,2v10.39h2.4a5.77,5.77,0,0,0,4.8-1.78,8.88,8.88,0,0,0,1.33-5,7.82,7.82,0,0,0-1.33-5.06,5.77,5.77,0,0,0-4.53-1.69,4.44,4.44,0,0,0-1.69,0" transform="translate(-312 -454.31)"/><path class="a" d="M500.37,568.44v.71H492v-.71a5.06,5.06,0,0,0,2,0,1,1,0,0,0,.53-1,3.64,3.64,0,0,0-.44-1.6L491.93,560H483l-1.42,3.82a7.64,7.64,0,0,0-.71,2.84,1.69,1.69,0,0,0,.71,1.6,4.26,4.26,0,0,0,2.31.53v.71h-6.31v-.71c1.15,0,2-1.33,2.75-3l8.35-21.49h.53l8.88,22.29c.53,1.42,1.42,2.22,2.49,2.22Zm-8.61-9.06-4-10.57-4,10.57Z" transform="translate(-312 -454.31)"/><path class="a" d="M528.79,567.37a6.4,6.4,0,0,1-1.6,1.78,3.82,3.82,0,0,1-2.13.53,3.2,3.2,0,0,1-2.4-.89,5.6,5.6,0,0,1-1.42-2.93l-.8-3.55a19.82,19.82,0,0,0-.8-2.84,3.91,3.91,0,0,0-1.07-1.6,3.82,3.82,0,0,0-2.13-.62h-3.29v8.17a5.77,5.77,0,0,0,0,2,1.42,1.42,0,0,0,.8.8,4.53,4.53,0,0,0,1.86,0v.71h-8.88v-.71a4.53,4.53,0,0,0,1.87,0,1.16,1.16,0,0,0,.8-.8,5.42,5.42,0,0,0,0-2V547.66a5.06,5.06,0,0,0,0-2,1,1,0,0,0-.8-.8,6.22,6.22,0,0,0-1.87,0v-.62h9.77A10,10,0,0,1,523,546a5.6,5.6,0,0,1,2.22,4.44,7.73,7.73,0,0,1-.62,2.75,7.46,7.46,0,0,1-2.22,2.58,8.88,8.88,0,0,1-4,1.42,7,7,0,0,1,3.46,1.42,6.66,6.66,0,0,1,1.51,3.29l.89,3.55a8.89,8.89,0,0,0,.71,2.31,1.15,1.15,0,0,0,1.07.62,1.42,1.42,0,0,0,1.07,0,5.06,5.06,0,0,0,.89-1ZM514,545.08a1.42,1.42,0,0,0-.71.89,5.77,5.77,0,0,0,0,2v8.88h2.31a5.86,5.86,0,0,0,4.8-1.6,6.57,6.57,0,0,0,1.33-4.35,5.95,5.95,0,0,0-1.42-4.35,5.86,5.86,0,0,0-4.44-1.51,4.43,4.43,0,0,0-1.69,0" transform="translate(-312 -454.31)"/><path class="a" d="M544.95,544.81a6.93,6.93,0,0,0-1.87,0,1.16,1.16,0,0,0-.8.8,8.87,8.87,0,0,0,0,2v17.76a9.65,9.65,0,0,0,0,2,1.78,1.78,0,0,0,.8.8,4.89,4.89,0,0,0,1.87,0v.71h-8.88v-.71a4.36,4.36,0,0,0,1.78,0,1.15,1.15,0,0,0,.8-.8,5.41,5.41,0,0,0,0-2V547.57a5.06,5.06,0,0,0,0-2,1,1,0,0,0-.8-.8,6.12,6.12,0,0,0-1.78,0v-.71h9Z" transform="translate(-312 -454.31)"/><path class="a" d="M564,544.1a9.59,9.59,0,0,1,1.87,1,2.75,2.75,0,0,0,1.15,0h.53a7.66,7.66,0,0,0,0-1.15h.8v7.19h-.8a8.88,8.88,0,0,0-1.69-4.8,4.62,4.62,0,0,0-4.09-2,4.08,4.08,0,0,0-3.11,1.15,3.73,3.73,0,0,0-1.24,2.93,3.91,3.91,0,0,0,.62,2.31,5.86,5.86,0,0,0,1.6,1.69l2.66,1.78,1.07.71a22.65,22.65,0,0,1,3.46,2.4,8.89,8.89,0,0,1,2.13,2.4,6.42,6.42,0,0,1-1.33,8.08,8.26,8.26,0,0,1-5.42,1.78,10.93,10.93,0,0,1-2.75,0,8.89,8.89,0,0,1-2-1,2.67,2.67,0,0,0-1.24-.53l-.44.44a2.48,2.48,0,0,0,0,1.15H555V560.8h.8a11.46,11.46,0,0,0,1.78,5.86,5.33,5.33,0,0,0,4.62,2.22,4.71,4.71,0,0,0,3.29-1.24,4.26,4.26,0,0,0,1.33-3.46,4.62,4.62,0,0,0-1.33-3.37,21,21,0,0,0-4.17-3.11,37.27,37.27,0,0,1-3.37-2.22,8.88,8.88,0,0,1-2.13-2.4,6.66,6.66,0,0,1-.8-3.29,5.42,5.42,0,0,1,2-4.53,7,7,0,0,1,4.71-1.6,6.4,6.4,0,0,1,2.49,0" transform="translate(-312 -454.31)"/></svg>